<svg xmlns="http://www.w3.org/2000/svg" width="60" height="60" viewBox="0 0 60 60" fill="none">
<!-- <circle cx="30" cy="30" r="30" fill="#3B82F6"/> -->
<path d="M20.6929 18.1754C14.9345 18.1754 10.2493 23.0555 10.2493 29.0541C10.2493 31.7414 11.1946 34.1996 12.7504 36.0995C13.9084 35.2875 15.2985 34.8086 16.7948 34.7998C17.5944 28.1905 22.8833 23.1578 29.3578 22.9885C27.4799 20.0873 24.2967 18.1754 20.6929 18.1754Z" fill="#EFCC00"/>
<path d="M42.5458 47.743C40.6429 47.743 38.8008 47.0176 37.3605 45.7006C37.149 45.5074 36.8841 45.4096 36.6187 45.4096C36.3889 45.4096 36.1586 45.4825 35.9622 45.63C34.117 47.0123 31.9485 47.743 29.6911 47.743C27.158 47.743 24.694 46.8032 22.754 45.0971C22.5092 44.8811 22.1879 44.785 21.8672 44.8328C21.549 44.8808 21.2659 45.0685 21.0889 45.3483C20.1418 46.8476 18.5521 47.743 16.8362 47.743C14.0308 47.743 11.7481 45.3652 11.7481 42.4428C11.7481 41.2801 12.1134 40.2073 12.7254 39.3322C13.181 38.6814 13.7716 38.1407 14.4582 37.7606C15.1686 37.3677 15.977 37.1428 16.8362 37.1428C17.0803 37.1428 17.3446 37.1673 17.6446 37.2176C17.9628 37.2693 18.2879 37.1797 18.5364 36.9665C18.7856 36.7538 18.9349 36.4399 18.9475 36.1045C19.1653 30.0546 23.8843 25.3155 29.6911 25.3155C29.9622 25.3155 30.2314 25.3285 30.4994 25.3498C31.3573 25.4171 32.1939 25.594 32.9967 25.8646C35.5561 26.7286 37.7609 28.5729 39.1078 31.1003C39.3614 31.5759 39.8929 31.8074 40.3981 31.659C41.1124 31.4481 41.8348 31.3413 42.5458 31.3413C46.8871 31.3413 50.4187 35.02 50.4187 39.5421C50.4187 44.0642 46.8871 47.743 42.5458 47.743Z" fill="white"/>
<path fill-rule="evenodd" clip-rule="evenodd" d="M42.5458 28.9981C41.91 28.9981 41.2693 29.0638 40.6322 29.1936C38.6766 26.0323 35.5591 23.8782 32.0577 23.2015L29.3578 22.9885C22.8833 23.1578 17.5944 28.1905 16.7948 34.7998C15.2985 34.8086 13.9084 35.2875 12.7504 36.0995L11.101 37.6877C10.1006 38.9942 9.49874 40.6456 9.49874 42.4428C9.49874 46.6574 12.7906 50.086 16.8362 50.086C18.9054 50.086 20.8467 49.1848 22.2249 47.6272C24.4053 49.2201 27.0162 50.086 29.6911 50.086C32.1356 50.086 34.4929 49.379 36.559 48.0332C38.2932 49.3626 40.3881 50.086 42.5458 50.086C48.1272 50.086 52.6681 45.356 52.6681 39.5421C52.6681 33.7282 48.1272 28.9981 42.5458 28.9981ZM37.3605 45.7006C38.8008 47.0176 40.6429 47.743 42.5458 47.743C46.8871 47.743 50.4187 44.0642 50.4187 39.5421C50.4187 35.02 46.8871 31.3413 42.5458 31.3413C41.8348 31.3413 41.1124 31.4481 40.3981 31.659C39.8929 31.8074 39.3614 31.5759 39.1078 31.1003C37.7609 28.5729 35.5561 26.7286 32.9967 25.8646C32.1939 25.594 31.3573 25.4171 30.4994 25.3498C30.2314 25.3285 29.9622 25.3155 29.6911 25.3155C23.8843 25.3155 19.1653 30.0546 18.9475 36.1045C18.9349 36.4399 18.7856 36.7538 18.5364 36.9665C18.2879 37.1797 17.9628 37.2693 17.6446 37.2176C17.3446 37.1673 17.0803 37.1428 16.8362 37.1428C15.977 37.1428 15.1686 37.3677 14.4582 37.7606C13.7716 38.1407 13.181 38.6814 12.7254 39.3322C12.1134 40.2073 11.7481 41.2801 11.7481 42.4428C11.7481 45.3652 14.0308 47.743 16.8362 47.743C18.5521 47.743 20.1418 46.8476 21.0889 45.3483C21.2659 45.0685 21.549 44.8808 21.8672 44.8328C22.1879 44.785 22.5092 44.8811 22.754 45.0971C24.694 46.8032 27.158 47.743 29.6911 47.743C31.9485 47.743 34.117 47.0123 35.9622 45.63C36.1586 45.4825 36.3889 45.4096 36.6187 45.4096C36.8841 45.4096 37.149 45.5074 37.3605 45.7006Z" fill="white"/>
<path d="M32.0577 23.2015C29.9803 18.8425 25.673 15.8323 20.6929 15.8323C13.6937 15.8323 8 21.7635 8 29.054C8 32.3543 9.17492 35.3684 11.101 37.6877L12.7504 36.0995C11.1946 34.1996 10.2493 31.7414 10.2493 29.0541C10.2493 23.0555 14.9345 18.1754 20.6929 18.1754C24.2967 18.1754 27.4799 20.0873 29.3578 22.9885L32.0577 23.2015Z" fill="#EFCC00"/>
<path d="M31.8331 17.9521C32.1211 17.9521 32.4086 17.8377 32.6282 17.6089L36.2703 13.8151C36.7096 13.3578 36.7096 12.6158 36.2703 12.1585C35.8309 11.7008 35.1192 11.7008 34.6799 12.1585L31.0378 15.9523C30.5985 16.4096 30.5985 17.1516 31.0378 17.6089C31.2576 17.8377 31.5451 17.9521 31.8331 17.9521Z" fill="#EFCC00"/>
<path d="M26.3597 14.3832C26.4952 14.4395 26.6358 14.4663 26.7739 14.4663C27.2214 14.4663 27.645 14.1862 27.8195 13.7269L28.9153 10.8532C29.145 10.2521 28.8625 9.57087 28.2852 9.33193C27.709 9.09431 27.0538 9.38749 26.8253 9.98831L25.7295 12.8619C25.4998 13.4631 25.7823 14.1443 26.3597 14.3832Z" fill="#EFCC00"/>
<path d="M21.0224 13.2244C21.0286 13.2244 21.0356 13.2244 21.0418 13.2241C21.6625 13.2134 22.1584 12.6802 22.147 12.0333L22.1175 10.153C22.1068 9.50586 21.5709 8.96873 20.974 9.00142C20.3533 9.01223 19.8574 9.54535 19.8688 10.1923L19.8983 12.0725C19.909 12.7129 20.4099 13.2244 21.0224 13.2244Z" fill="#EFCC00"/>
</svg>